# xmcd CD database file
#
# Track frame offsets:
#	150
#	16908
#	51784
#	87538
#	111868
#	139758
#	180961
#	214232
#
# Disc length: 3271 seconds
#
# Revision: 0
# Processed by: cddbd v1.5.2PL0 Copyright (c) Steve Scherf et al.
# Submitted via: CDex 1.51
#
DISCID=680cc508
DTITLE=Chirstophe Marguet Quintet Résistance Poétique - Pulsion
DYEAR=2016
DGENRE=Jazz
TTITLE0=Espéranto
TTITLE1=Wasini Sunset
TTITLE2=Tiny Feet Dance
TTITLE3=Noces
TTITLE4=Le Repère
TTITLE5=San Francisco
TTITLE6=Coral Spirit
TTITLE7=Amboseli
EXTD=YEAR: 2016
EXTT0=
EXTT1=
EXTT2=
EXTT3=
EXTT4=
EXTT5=
EXTT6=
EXTT7=
PLAYORDER=
